<svg width="250" height="250" viewBox="0 0 250 250" fill="none" xmlns="http://www.w3.org/2000/svg">
<path d="M46.8256 223C46.3856 223 46.0156 222.85 45.7156 222.55C45.4156 222.25 45.2656 221.88 45.2656 221.44V201.13C45.2656 200.67 45.4156 200.3 45.7156 200.02C46.0156 199.72 46.3856 199.57 46.8256 199.57C47.4256 199.57 47.8856 199.85 48.2056 200.41L57.5956 219.22H56.6356L65.7856 200.41C66.1056 199.85 66.5656 199.57 67.1656 199.57C67.6056 199.57 67.9756 199.72 68.2756 200.02C68.5756 200.3 68.7256 200.67 68.7256 201.13V221.44C68.7256 221.88 68.5656 222.25 68.2456 222.55C67.9456 222.85 67.5856 223 67.1656 223C66.7256 223 66.3556 222.85 66.0556 222.55C65.7556 222.25 65.6056 221.88 65.6056 221.44V205.45L66.2056 205.3L58.3456 221.32C58.0056 221.84 57.5556 222.1 56.9956 222.1C56.3356 222.1 55.8556 221.79 55.5556 221.17L47.7856 205.6L48.3856 205.45V221.44C48.3856 221.88 48.2356 222.25 47.9356 222.55C47.6356 222.85 47.2656 223 46.8256 223ZM81.2783 223.12C79.8183 223.12 78.5083 222.76 77.3483 222.04C76.1883 221.3 75.2683 220.31 74.5883 219.07C73.9283 217.81 73.5983 216.39 73.5983 214.81C73.5983 213.23 73.9583 211.81 74.6783 210.55C75.4183 209.29 76.4083 208.3 77.6483 207.58C78.9083 206.84 80.3183 206.47 81.8783 206.47C83.4383 206.47 84.8383 206.84 86.0783 207.58C87.3183 208.3 88.2983 209.29 89.0183 210.55C89.7583 211.81 90.1283 213.23 90.1283 214.81H88.9583C88.9583 216.39 88.6183 217.81 87.9383 219.07C87.2783 220.31 86.3683 221.3 85.2083 222.04C84.0483 222.76 82.7383 223.12 81.2783 223.12ZM81.8783 220.42C82.8983 220.42 83.8083 220.18 84.6083 219.7C85.4083 219.2 86.0383 218.53 86.4983 217.69C86.9583 216.83 87.1883 215.87 87.1883 214.81C87.1883 213.73 86.9583 212.77 86.4983 211.93C86.0383 211.07 85.4083 210.4 84.6083 209.92C83.8083 209.42 82.8983 209.17 81.8783 209.17C80.8783 209.17 79.9683 209.42 79.1483 209.92C78.3483 210.4 77.7083 211.07 77.2283 211.93C76.7683 212.77 76.5383 213.73 76.5383 214.81C76.5383 215.87 76.7683 216.83 77.2283 217.69C77.7083 218.53 78.3483 219.2 79.1483 219.7C79.9683 220.18 80.8783 220.42 81.8783 220.42ZM88.5983 223.03C88.1583 223.03 87.7883 222.89 87.4883 222.61C87.2083 222.31 87.0683 221.94 87.0683 221.5V216.91L87.6383 213.73L90.1283 214.81V221.5C90.1283 221.94 89.9783 222.31 89.6783 222.61C89.3983 222.89 89.0383 223.03 88.5983 223.03ZM99.3242 222.97C98.7042 222.97 98.2242 222.64 97.8842 221.98L91.5242 208.57C91.3642 208.23 91.3442 207.9 91.4642 207.58C91.6042 207.24 91.8642 206.98 92.2442 206.8C92.5842 206.62 92.9242 206.59 93.2642 206.71C93.6242 206.83 93.8942 207.06 94.0742 207.4L100.014 220.21H98.5742L104.454 207.4C104.634 207.06 104.904 206.83 105.264 206.71C105.644 206.59 106.024 206.62 106.404 206.8C106.764 206.96 107.004 207.21 107.124 207.55C107.244 207.89 107.224 208.23 107.064 208.57L100.704 221.98C100.404 222.64 99.9442 222.97 99.3242 222.97ZM117.334 223.12C115.674 223.12 114.194 222.77 112.894 222.07C111.614 221.35 110.604 220.37 109.864 219.13C109.144 217.87 108.784 216.43 108.784 214.81C108.784 213.17 109.124 211.73 109.804 210.49C110.504 209.23 111.464 208.25 112.684 207.55C113.904 206.83 115.304 206.47 116.884 206.47C118.444 206.47 119.784 206.82 120.904 207.52C122.024 208.2 122.874 209.15 123.454 210.37C124.054 211.57 124.354 212.96 124.354 214.54C124.354 214.92 124.224 215.24 123.964 215.5C123.704 215.74 123.374 215.86 122.974 215.86H110.884V213.46H122.884L121.654 214.3C121.634 213.3 121.434 212.41 121.054 211.63C120.674 210.83 120.134 210.2 119.434 209.74C118.734 209.28 117.884 209.05 116.884 209.05C115.744 209.05 114.764 209.3 113.944 209.8C113.144 210.3 112.534 210.99 112.114 211.87C111.694 212.73 111.484 213.71 111.484 214.81C111.484 215.91 111.734 216.89 112.234 217.75C112.734 218.61 113.424 219.29 114.304 219.79C115.184 220.29 116.194 220.54 117.334 220.54C117.954 220.54 118.584 220.43 119.224 220.21C119.884 219.97 120.414 219.7 120.814 219.4C121.114 219.18 121.434 219.07 121.774 219.07C122.134 219.05 122.444 219.15 122.704 219.37C123.044 219.67 123.224 220 123.244 220.36C123.264 220.72 123.104 221.03 122.764 221.29C122.084 221.83 121.234 222.27 120.214 222.61C119.214 222.95 118.254 223.12 117.334 223.12ZM142.117 223.03C141.677 223.03 141.307 222.89 141.007 222.61C140.727 222.31 140.587 221.94 140.587 221.5V214.12C140.587 212.98 140.377 212.05 139.957 211.33C139.537 210.61 138.967 210.08 138.247 209.74C137.547 209.38 136.737 209.2 135.817 209.2C134.977 209.2 134.217 209.37 133.537 209.71C132.857 210.05 132.317 210.51 131.917 211.09C131.517 211.65 131.317 212.3 131.317 213.04H129.427C129.427 211.78 129.727 210.66 130.327 209.68C130.947 208.68 131.787 207.89 132.847 207.31C133.907 206.73 135.097 206.44 136.417 206.44C137.797 206.44 139.027 206.74 140.107 207.34C141.207 207.92 142.067 208.78 142.687 209.92C143.327 211.06 143.647 212.46 143.647 214.12V221.5C143.647 221.94 143.497 222.31 143.197 222.61C142.917 222.89 142.557 223.03 142.117 223.03ZM129.787 223.03C129.347 223.03 128.977 222.89 128.677 222.61C128.397 222.31 128.257 221.94 128.257 221.5V208.12C128.257 207.66 128.397 207.29 128.677 207.01C128.977 206.73 129.347 206.59 129.787 206.59C130.247 206.59 130.617 206.73 130.897 207.01C131.177 207.29 131.317 207.66 131.317 208.12V221.5C131.317 221.94 131.177 222.31 130.897 222.61C130.617 222.89 130.247 223.03 129.787 223.03ZM156.865 223C156.305 223 155.875 222.76 155.575 222.28C155.275 221.8 155.245 221.29 155.485 220.75L163.915 200.62C164.215 199.92 164.705 199.57 165.385 199.57C166.105 199.57 166.595 199.92 166.855 200.62L175.315 220.81C175.535 221.37 175.495 221.88 175.195 222.34C174.915 222.78 174.485 223 173.905 223C173.605 223 173.315 222.92 173.035 222.76C172.775 222.58 172.585 222.34 172.465 222.04L165.025 203.56H165.865L158.305 222.04C158.165 222.36 157.955 222.6 157.675 222.76C157.415 222.92 157.145 223 156.865 223ZM158.455 217.84L159.655 215.26H171.415L172.615 217.84H158.455ZM188.803 223.3C187.183 223.3 185.663 223 184.243 222.4C182.843 221.78 181.613 220.93 180.553 219.85C179.513 218.75 178.693 217.47 178.093 216.01C177.513 214.55 177.223 212.97 177.223 211.27C177.223 209.59 177.513 208.03 178.093 206.59C178.693 205.13 179.513 203.86 180.553 202.78C181.613 201.68 182.843 200.82 184.243 200.2C185.643 199.58 187.163 199.27 188.803 199.27C190.343 199.27 191.663 199.47 192.763 199.87C193.883 200.27 195.003 200.93 196.123 201.85C196.283 201.97 196.403 202.1 196.483 202.24C196.583 202.36 196.643 202.49 196.663 202.63C196.703 202.75 196.723 202.9 196.723 203.08C196.723 203.46 196.583 203.78 196.303 204.04C196.043 204.3 195.713 204.44 195.313 204.46C194.933 204.48 194.573 204.35 194.233 204.07C193.493 203.43 192.723 202.94 191.923 202.6C191.143 202.26 190.103 202.09 188.803 202.09C187.623 202.09 186.513 202.33 185.473 202.81C184.433 203.29 183.513 203.95 182.713 204.79C181.933 205.63 181.323 206.61 180.883 207.73C180.443 208.83 180.223 210.01 180.223 211.27C180.223 212.55 180.443 213.75 180.883 214.87C181.323 215.97 181.933 216.94 182.713 217.78C183.513 218.62 184.433 219.28 185.473 219.76C186.513 220.22 187.623 220.45 188.803 220.45C189.823 220.45 190.783 220.28 191.683 219.94C192.603 219.58 193.483 219.09 194.323 218.47C194.683 218.21 195.033 218.1 195.373 218.14C195.733 218.16 196.033 218.3 196.273 218.56C196.513 218.8 196.633 219.14 196.633 219.58C196.633 219.78 196.593 219.98 196.513 220.18C196.453 220.36 196.333 220.53 196.153 220.69C195.093 221.57 193.943 222.23 192.703 222.67C191.463 223.09 190.163 223.3 188.803 223.3ZM196.633 219.58L193.633 218.98V213.61H189.493C189.053 213.61 188.683 213.48 188.383 213.22C188.083 212.96 187.933 212.63 187.933 212.23C187.933 211.83 188.083 211.5 188.383 211.24C188.683 210.98 189.053 210.85 189.493 210.85H195.103C195.563 210.85 195.933 211 196.213 211.3C196.493 211.58 196.633 211.95 196.633 212.41V219.58ZM203.183 223C202.743 223 202.373 222.85 202.073 222.55C201.773 222.25 201.623 221.88 201.623 221.44V201.13C201.623 200.67 201.773 200.3 202.073 200.02C202.373 199.72 202.743 199.57 203.183 199.57C203.643 199.57 204.013 199.72 204.293 200.02C204.593 200.3 204.743 200.67 204.743 201.13V221.44C204.743 221.88 204.593 222.25 204.293 222.55C204.013 222.85 203.643 223 203.183 223Z" fill="white"/>
<circle cx="116" cy="93" r="70" stroke="url(#paint0_linear_103_48)" stroke-width="6"/>
<circle cx="135" cy="110" r="66" stroke="url(#paint1_linear_103_48)" stroke-width="14"/>
<defs>
<linearGradient id="paint0_linear_103_48" x1="58.227" y1="26.2699" x2="189" y2="174.957" gradientUnits="userSpaceOnUse">
<stop stop-color="#CCB7E1"/>
<stop offset="1" stop-color="#7000FF"/>
</linearGradient>
<linearGradient id="paint1_linear_103_48" x1="77.227" y1="43.2699" x2="208" y2="191.957" gradientUnits="userSpaceOnUse">
<stop stop-color="#C6ACE0"/>
<stop offset="1" stop-color="#7000FF"/>
</linearGradient>
</defs>
</svg>
