<svg width="250" height="250" viewBox="0 0 250 250" fill="none" xmlns="http://www.w3.org/2000/svg">
<path d="M46.8256 222C46.3856 222 46.0156 221.85 45.7156 221.55C45.4156 221.25 45.2656 220.88 45.2656 220.44V200.13C45.2656 199.67 45.4156 199.3 45.7156 199.02C46.0156 198.72 46.3856 198.57 46.8256 198.57C47.4256 198.57 47.8856 198.85 48.2056 199.41L57.5956 218.22H56.6356L65.7856 199.41C66.1056 198.85 66.5656 198.57 67.1656 198.57C67.6056 198.57 67.9756 198.72 68.2756 199.02C68.5756 199.3 68.7256 199.67 68.7256 200.13V220.44C68.7256 220.88 68.5656 221.25 68.2456 221.55C67.9456 221.85 67.5856 222 67.1656 222C66.7256 222 66.3556 221.85 66.0556 221.55C65.7556 221.25 65.6056 220.88 65.6056 220.44V204.45L66.2056 204.3L58.3456 220.32C58.0056 220.84 57.5556 221.1 56.9956 221.1C56.3356 221.1 55.8556 220.79 55.5556 220.17L47.7856 204.6L48.3856 204.45V220.44C48.3856 220.88 48.2356 221.25 47.9356 221.55C47.6356 221.85 47.2656 222 46.8256 222ZM81.2783 222.12C79.8183 222.12 78.5083 221.76 77.3483 221.04C76.1883 220.3 75.2683 219.31 74.5883 218.07C73.9283 216.81 73.5983 215.39 73.5983 213.81C73.5983 212.23 73.9583 210.81 74.6783 209.55C75.4183 208.29 76.4083 207.3 77.6483 206.58C78.9083 205.84 80.3183 205.47 81.8783 205.47C83.4383 205.47 84.8383 205.84 86.0783 206.58C87.3183 207.3 88.2983 208.29 89.0183 209.55C89.7583 210.81 90.1283 212.23 90.1283 213.81H88.9583C88.9583 215.39 88.6183 216.81 87.9383 218.07C87.2783 219.31 86.3683 220.3 85.2083 221.04C84.0483 221.76 82.7383 222.12 81.2783 222.12ZM81.8783 219.42C82.8983 219.42 83.8083 219.18 84.6083 218.7C85.4083 218.2 86.0383 217.53 86.4983 216.69C86.9583 215.83 87.1883 214.87 87.1883 213.81C87.1883 212.73 86.9583 211.77 86.4983 210.93C86.0383 210.07 85.4083 209.4 84.6083 208.92C83.8083 208.42 82.8983 208.17 81.8783 208.17C80.8783 208.17 79.9683 208.42 79.1483 208.92C78.3483 209.4 77.7083 210.07 77.2283 210.93C76.7683 211.77 76.5383 212.73 76.5383 213.81C76.5383 214.87 76.7683 215.83 77.2283 216.69C77.7083 217.53 78.3483 218.2 79.1483 218.7C79.9683 219.18 80.8783 219.42 81.8783 219.42ZM88.5983 222.03C88.1583 222.03 87.7883 221.89 87.4883 221.61C87.2083 221.31 87.0683 220.94 87.0683 220.5V215.91L87.6383 212.73L90.1283 213.81V220.5C90.1283 220.94 89.9783 221.31 89.6783 221.61C89.3983 221.89 89.0383 222.03 88.5983 222.03ZM99.3242 221.97C98.7042 221.97 98.2242 221.64 97.8842 220.98L91.5242 207.57C91.3642 207.23 91.3442 206.9 91.4642 206.58C91.6042 206.24 91.8642 205.98 92.2442 205.8C92.5842 205.62 92.9242 205.59 93.2642 205.71C93.6242 205.83 93.8942 206.06 94.0742 206.4L100.014 219.21H98.5742L104.454 206.4C104.634 206.06 104.904 205.83 105.264 205.71C105.644 205.59 106.024 205.62 106.404 205.8C106.764 205.96 107.004 206.21 107.124 206.55C107.244 206.89 107.224 207.23 107.064 207.57L100.704 220.98C100.404 221.64 99.9442 221.97 99.3242 221.97ZM117.334 222.12C115.674 222.12 114.194 221.77 112.894 221.07C111.614 220.35 110.604 219.37 109.864 218.13C109.144 216.87 108.784 215.43 108.784 213.81C108.784 212.17 109.124 210.73 109.804 209.49C110.504 208.23 111.464 207.25 112.684 206.55C113.904 205.83 115.304 205.47 116.884 205.47C118.444 205.47 119.784 205.82 120.904 206.52C122.024 207.2 122.874 208.15 123.454 209.37C124.054 210.57 124.354 211.96 124.354 213.54C124.354 213.92 124.224 214.24 123.964 214.5C123.704 214.74 123.374 214.86 122.974 214.86H110.884V212.46H122.884L121.654 213.3C121.634 212.3 121.434 211.41 121.054 210.63C120.674 209.83 120.134 209.2 119.434 208.74C118.734 208.28 117.884 208.05 116.884 208.05C115.744 208.05 114.764 208.3 113.944 208.8C113.144 209.3 112.534 209.99 112.114 210.87C111.694 211.73 111.484 212.71 111.484 213.81C111.484 214.91 111.734 215.89 112.234 216.75C112.734 217.61 113.424 218.29 114.304 218.79C115.184 219.29 116.194 219.54 117.334 219.54C117.954 219.54 118.584 219.43 119.224 219.21C119.884 218.97 120.414 218.7 120.814 218.4C121.114 218.18 121.434 218.07 121.774 218.07C122.134 218.05 122.444 218.15 122.704 218.37C123.044 218.67 123.224 219 123.244 219.36C123.264 219.72 123.104 220.03 122.764 220.29C122.084 220.83 121.234 221.27 120.214 221.61C119.214 221.95 118.254 222.12 117.334 222.12ZM142.117 222.03C141.677 222.03 141.307 221.89 141.007 221.61C140.727 221.31 140.587 220.94 140.587 220.5V213.12C140.587 211.98 140.377 211.05 139.957 210.33C139.537 209.61 138.967 209.08 138.247 208.74C137.547 208.38 136.737 208.2 135.817 208.2C134.977 208.2 134.217 208.37 133.537 208.71C132.857 209.05 132.317 209.51 131.917 210.09C131.517 210.65 131.317 211.3 131.317 212.04H129.427C129.427 210.78 129.727 209.66 130.327 208.68C130.947 207.68 131.787 206.89 132.847 206.31C133.907 205.73 135.097 205.44 136.417 205.44C137.797 205.44 139.027 205.74 140.107 206.34C141.207 206.92 142.067 207.78 142.687 208.92C143.327 210.06 143.647 211.46 143.647 213.12V220.5C143.647 220.94 143.497 221.31 143.197 221.61C142.917 221.89 142.557 222.03 142.117 222.03ZM129.787 222.03C129.347 222.03 128.977 221.89 128.677 221.61C128.397 221.31 128.257 220.94 128.257 220.5V207.12C128.257 206.66 128.397 206.29 128.677 206.01C128.977 205.73 129.347 205.59 129.787 205.59C130.247 205.59 130.617 205.73 130.897 206.01C131.177 206.29 131.317 206.66 131.317 207.12V220.5C131.317 220.94 131.177 221.31 130.897 221.61C130.617 221.89 130.247 222.03 129.787 222.03ZM156.865 222C156.305 222 155.875 221.76 155.575 221.28C155.275 220.8 155.245 220.29 155.485 219.75L163.915 199.62C164.215 198.92 164.705 198.57 165.385 198.57C166.105 198.57 166.595 198.92 166.855 199.62L175.315 219.81C175.535 220.37 175.495 220.88 175.195 221.34C174.915 221.78 174.485 222 173.905 222C173.605 222 173.315 221.92 173.035 221.76C172.775 221.58 172.585 221.34 172.465 221.04L165.025 202.56H165.865L158.305 221.04C158.165 221.36 157.955 221.6 157.675 221.76C157.415 221.92 157.145 222 156.865 222ZM158.455 216.84L159.655 214.26H171.415L172.615 216.84H158.455ZM188.803 222.3C187.183 222.3 185.663 222 184.243 221.4C182.843 220.78 181.613 219.93 180.553 218.85C179.513 217.75 178.693 216.47 178.093 215.01C177.513 213.55 177.223 211.97 177.223 210.27C177.223 208.59 177.513 207.03 178.093 205.59C178.693 204.13 179.513 202.86 180.553 201.78C181.613 200.68 182.843 199.82 184.243 199.2C185.643 198.58 187.163 198.27 188.803 198.27C190.343 198.27 191.663 198.47 192.763 198.87C193.883 199.27 195.003 199.93 196.123 200.85C196.283 200.97 196.403 201.1 196.483 201.24C196.583 201.36 196.643 201.49 196.663 201.63C196.703 201.75 196.723 201.9 196.723 202.08C196.723 202.46 196.583 202.78 196.303 203.04C196.043 203.3 195.713 203.44 195.313 203.46C194.933 203.48 194.573 203.35 194.233 203.07C193.493 202.43 192.723 201.94 191.923 201.6C191.143 201.26 190.103 201.09 188.803 201.09C187.623 201.09 186.513 201.33 185.473 201.81C184.433 202.29 183.513 202.95 182.713 203.79C181.933 204.63 181.323 205.61 180.883 206.73C180.443 207.83 180.223 209.01 180.223 210.27C180.223 211.55 180.443 212.75 180.883 213.87C181.323 214.97 181.933 215.94 182.713 216.78C183.513 217.62 184.433 218.28 185.473 218.76C186.513 219.22 187.623 219.45 188.803 219.45C189.823 219.45 190.783 219.28 191.683 218.94C192.603 218.58 193.483 218.09 194.323 217.47C194.683 217.21 195.033 217.1 195.373 217.14C195.733 217.16 196.033 217.3 196.273 217.56C196.513 217.8 196.633 218.14 196.633 218.58C196.633 218.78 196.593 218.98 196.513 219.18C196.453 219.36 196.333 219.53 196.153 219.69C195.093 220.57 193.943 221.23 192.703 221.67C191.463 222.09 190.163 222.3 188.803 222.3ZM196.633 218.58L193.633 217.98V212.61H189.493C189.053 212.61 188.683 212.48 188.383 212.22C188.083 211.96 187.933 211.63 187.933 211.23C187.933 210.83 188.083 210.5 188.383 210.24C188.683 209.98 189.053 209.85 189.493 209.85H195.103C195.563 209.85 195.933 210 196.213 210.3C196.493 210.58 196.633 210.95 196.633 211.41V218.58ZM203.183 222C202.743 222 202.373 221.85 202.073 221.55C201.773 221.25 201.623 220.88 201.623 220.44V200.13C201.623 199.67 201.773 199.3 202.073 199.02C202.373 198.72 202.743 198.57 203.183 198.57C203.643 198.57 204.013 198.72 204.293 199.02C204.593 199.3 204.743 199.67 204.743 200.13V220.44C204.743 220.88 204.593 221.25 204.293 221.55C204.013 221.85 203.643 222 203.183 222Z" fill="black"/>
<circle cx="115" cy="94" r="70" stroke="url(#paint0_linear_103_44)" stroke-width="6"/>
<circle cx="134" cy="111" r="66" stroke="url(#paint1_linear_103_44)" stroke-width="14"/>
<defs>
<linearGradient id="paint0_linear_103_44" x1="57.227" y1="27.2699" x2="188" y2="175.957" gradientUnits="userSpaceOnUse">
<stop stop-color="#CCB7E1"/>
<stop offset="1" stop-color="#7000FF"/>
</linearGradient>
<linearGradient id="paint1_linear_103_44" x1="76.227" y1="44.2699" x2="207" y2="192.957" gradientUnits="userSpaceOnUse">
<stop stop-color="#C6ACE0"/>
<stop offset="1" stop-color="#7000FF"/>
</linearGradient>
</defs>
</svg>
