<svg width="800" height="233" viewBox="0 0 800 233" fill="none" xmlns="http://www.w3.org/2000/svg">
<path d="M227.9 148C226.833 148 225.9 147.633 225.1 146.9C224.367 146.1 224 145.167 224 144.1V73.8C224 72.6667 224.367 71.7333 225.1 71C225.9 70.2667 226.833 69.9 227.9 69.9C229.5 69.9 230.667 70.5667 231.4 71.9L265.1 138.9H261.7L294.8 71.9C295.6 70.5667 296.767 69.9 298.3 69.9C299.367 69.9 300.267 70.2667 301 71C301.733 71.7333 302.1 72.6667 302.1 73.8V144.1C302.1 145.167 301.733 146.1 301 146.9C300.267 147.633 299.367 148 298.3 148C297.167 148 296.2 147.633 295.4 146.9C294.667 146.1 294.3 145.167 294.3 144.1V83.9L296 84L266.5 144.3C265.767 145.567 264.633 146.2 263.1 146.2C261.433 146.2 260.233 145.4 259.5 143.8L229.8 84.4L231.8 83.9V144.1C231.8 145.167 231.4 146.1 230.6 146.9C229.867 147.633 228.967 148 227.9 148ZM345.245 148.5C340.111 148.5 335.511 147.3 331.445 144.9C327.378 142.433 324.145 139.1 321.745 134.9C319.411 130.7 318.245 125.967 318.245 120.7C318.245 115.367 319.445 110.6 321.845 106.4C324.311 102.2 327.645 98.9 331.845 96.5C336.045 94.0333 340.778 92.8 346.045 92.8C351.311 92.8 356.011 94.0333 360.145 96.5C364.345 98.9 367.645 102.2 370.045 106.4C372.511 110.6 373.778 115.367 373.845 120.7L370.745 123.1C370.745 127.9 369.611 132.233 367.345 136.1C365.145 139.9 362.111 142.933 358.245 145.2C354.445 147.4 350.111 148.5 345.245 148.5ZM346.045 141.5C349.911 141.5 353.345 140.6 356.345 138.8C359.411 137 361.811 134.533 363.545 131.4C365.345 128.2 366.245 124.633 366.245 120.7C366.245 116.7 365.345 113.133 363.545 110C361.811 106.867 359.411 104.4 356.345 102.6C353.345 100.733 349.911 99.8 346.045 99.8C342.245 99.8 338.811 100.733 335.745 102.6C332.678 104.4 330.245 106.867 328.445 110C326.645 113.133 325.745 116.7 325.745 120.7C325.745 124.633 326.645 128.2 328.445 131.4C330.245 134.533 332.678 137 335.745 138.8C338.811 140.6 342.245 141.5 346.045 141.5ZM369.945 148C368.811 148 367.878 147.667 367.145 147C366.411 146.267 366.045 145.333 366.045 144.2V127.1L367.945 119.2L373.845 120.7V144.2C373.845 145.333 373.478 146.267 372.745 147C372.011 147.667 371.078 148 369.945 148ZM404.493 148C402.893 148 401.693 147.133 400.893 145.4L378.693 98.3C378.293 97.4333 378.26 96.5667 378.593 95.7C378.926 94.8333 379.593 94.1667 380.593 93.7C381.526 93.2333 382.426 93.1667 383.293 93.5C384.16 93.8333 384.826 94.4333 385.293 95.3L406.593 141.4H402.493L423.493 95.3C423.893 94.3667 424.56 93.7667 425.493 93.5C426.493 93.1667 427.46 93.2 428.393 93.6C429.326 94.0667 429.96 94.7667 430.293 95.7C430.626 96.5667 430.593 97.4 430.193 98.2L408.293 145.4C407.493 147.133 406.226 148 404.493 148ZM463.913 148.5C458.513 148.5 453.713 147.333 449.513 145C445.38 142.6 442.113 139.3 439.713 135.1C437.38 130.9 436.213 126.1 436.213 120.7C436.213 115.233 437.313 110.433 439.513 106.3C441.78 102.1 444.88 98.8 448.813 96.4C452.747 94 457.28 92.8 462.413 92.8C467.48 92.8 471.88 93.9667 475.613 96.3C479.413 98.5667 482.347 101.733 484.413 105.8C486.48 109.867 487.513 114.5 487.513 119.7C487.513 120.767 487.18 121.633 486.513 122.3C485.847 122.9 484.98 123.2 483.913 123.2H441.413V116.8H484.713L480.413 119.9C480.48 116.033 479.78 112.567 478.313 109.5C476.847 106.433 474.747 104.033 472.013 102.3C469.347 100.567 466.147 99.7 462.413 99.7C458.613 99.7 455.28 100.6 452.413 102.4C449.547 104.2 447.313 106.7 445.713 109.9C444.18 113.033 443.413 116.633 443.413 120.7C443.413 124.767 444.28 128.367 446.013 131.5C447.813 134.633 450.247 137.1 453.313 138.9C456.38 140.7 459.913 141.6 463.913 141.6C466.313 141.6 468.713 141.2 471.113 140.4C473.58 139.533 475.547 138.467 477.013 137.2C477.747 136.6 478.58 136.3 479.513 136.3C480.447 136.233 481.247 136.467 481.913 137C482.78 137.8 483.213 138.667 483.213 139.6C483.28 140.533 482.913 141.333 482.113 142C479.913 143.867 477.113 145.433 473.713 146.7C470.313 147.9 467.047 148.5 463.913 148.5ZM547.439 148C546.306 148 545.372 147.633 544.639 146.9C543.906 146.167 543.539 145.267 543.539 144.2V118.2C543.539 114.067 542.739 110.667 541.139 108C539.606 105.333 537.472 103.333 534.739 102C532.072 100.667 529.039 100 525.639 100C522.372 100 519.406 100.633 516.739 101.9C514.139 103.167 512.072 104.9 510.539 107.1C509.006 109.3 508.239 111.8 508.239 114.6H502.739C502.872 110.4 504.006 106.667 506.139 103.4C508.272 100.067 511.106 97.4667 514.639 95.6C518.172 93.6667 522.106 92.7 526.439 92.7C531.172 92.7 535.406 93.7 539.139 95.7C542.872 97.6333 545.806 100.5 547.939 104.3C550.139 108.1 551.239 112.733 551.239 118.2V144.2C551.239 145.267 550.872 146.167 550.139 146.9C549.406 147.633 548.506 148 547.439 148ZM504.439 148C503.239 148 502.272 147.667 501.539 147C500.872 146.267 500.539 145.333 500.539 144.2V97.2C500.539 96 500.872 95.0667 501.539 94.4C502.272 93.6667 503.239 93.3 504.439 93.3C505.572 93.3 506.472 93.6667 507.139 94.4C507.872 95.0667 508.239 96 508.239 97.2V144.2C508.239 145.333 507.872 146.267 507.139 147C506.472 147.667 505.572 148 504.439 148ZM594.212 148C592.678 148 591.578 147.367 590.912 146.1C590.245 144.833 590.178 143.6 590.712 142.4L620.112 72.6C620.845 70.8 622.112 69.9 623.912 69.9C625.645 69.9 626.878 70.8 627.612 72.6L657.112 142.5C657.712 143.767 657.612 145 656.812 146.2C656.078 147.4 655.012 148 653.612 148C652.812 148 652.078 147.8 651.412 147.4C650.812 147 650.312 146.4 649.912 145.6L622.412 78.9H625.512L597.812 145.6C597.478 146.4 596.978 147 596.312 147.4C595.712 147.8 595.012 148 594.212 148ZM600.812 129.4L603.812 122.7H644.412L647.412 129.4H600.812ZM701.971 149C696.571 149 691.504 147.967 686.771 145.9C682.104 143.833 677.971 140.967 674.371 137.3C670.838 133.567 668.071 129.3 666.071 124.5C664.071 119.633 663.071 114.433 663.071 108.9C663.071 103.433 664.038 98.3 665.971 93.5C667.971 88.6333 670.738 84.3667 674.271 80.7C677.871 77.0333 682.004 74.1667 686.671 72.1C691.404 69.9667 696.504 68.9 701.971 68.9C706.771 68.9 711.138 69.6 715.071 71C719.004 72.4 722.804 74.6333 726.471 77.7C727.071 78.1667 727.404 78.7333 727.471 79.4C727.604 80 727.538 80.6 727.271 81.2C727.004 81.7333 726.604 82.1333 726.071 82.4C725.938 82.9333 725.604 83.3333 725.071 83.6C724.538 83.8667 723.904 83.9667 723.171 83.9C722.504 83.8333 721.838 83.5333 721.171 83C718.571 80.7333 715.738 79.0667 712.671 78C709.604 76.8667 706.038 76.3 701.971 76.3C697.638 76.3 693.571 77.1667 689.771 78.9C686.038 80.6333 682.738 83 679.871 86C677.004 89 674.738 92.4667 673.071 96.4C671.471 100.333 670.671 104.5 670.671 108.9C670.671 113.433 671.471 117.667 673.071 121.6C674.738 125.533 677.004 129 679.871 132C682.738 135 686.038 137.367 689.771 139.1C693.571 140.767 697.638 141.6 701.971 141.6C705.638 141.6 709.104 141 712.371 139.8C715.638 138.6 718.738 136.867 721.671 134.6C722.471 133.933 723.304 133.667 724.171 133.8C725.104 133.933 725.904 134.333 726.571 135C727.238 135.667 727.571 136.533 727.571 137.6C727.571 138.133 727.504 138.633 727.371 139.1C727.238 139.5 726.938 139.933 726.471 140.4C723.071 143.533 719.271 145.767 715.071 147.1C710.871 148.367 706.504 149 701.971 149ZM727.571 137.6L719.971 136V115.9H704.371C703.238 115.9 702.304 115.567 701.571 114.9C700.838 114.233 700.471 113.4 700.471 112.4C700.471 111.4 700.838 110.6 701.571 110C702.304 109.333 703.238 109 704.371 109H723.671C724.804 109 725.738 109.367 726.471 110.1C727.204 110.767 727.571 111.667 727.571 112.8V137.6ZM747.529 148C746.396 148 745.462 147.633 744.729 146.9C743.996 146.167 743.629 145.233 743.629 144.1V73.8C743.629 72.6667 743.996 71.7333 744.729 71C745.462 70.2667 746.396 69.9 747.529 69.9C748.662 69.9 749.596 70.2667 750.329 71C751.062 71.7333 751.429 72.6667 751.429 73.8V144.1C751.429 145.233 751.062 146.167 750.329 146.9C749.596 147.633 748.662 148 747.529 148Z" fill="white"/>
<circle cx="111" cy="108" r="70" stroke="url(#paint0_linear_103_52)" stroke-width="6"/>
<circle cx="130" cy="125" r="66" stroke="url(#paint1_linear_103_52)" stroke-width="14"/>
<defs>
<linearGradient id="paint0_linear_103_52" x1="53.227" y1="41.2699" x2="184" y2="189.957" gradientUnits="userSpaceOnUse">
<stop stop-color="#CCB7E1"/>
<stop offset="1" stop-color="#7000FF"/>
</linearGradient>
<linearGradient id="paint1_linear_103_52" x1="72.227" y1="58.2699" x2="203" y2="206.957" gradientUnits="userSpaceOnUse">
<stop stop-color="#C6ACE0"/>
<stop offset="1" stop-color="#7000FF"/>
</linearGradient>
</defs>
</svg>
