<?xml version="1.0" encoding="UTF-8"?>
<svg id="Layer_1" data-name="Layer 1" xmlns="http://www.w3.org/2000/svg" viewBox="0 0 252.88 63">
  <defs>
    <style>
      .cls-1 {
        opacity: .75;
      }

      .cls-1, .cls-2, .cls-3, .cls-4, .cls-5 {
        fill: #732EB8;
      }

      .cls-2 {
        opacity: .5;
      }

      .cls-3 {
        opacity: .25;
      }

      .cls-4 {
        opacity: .1;
      }
    </style>
  </defs>
  <g>
    <polygon class="cls-5" points="92.584 12.494 88.525 12.494 80.616 39.959 72.792 12.494 67.781 12.494 65.476 12.494 61.117 12.494 61.117 50.074 67.781 50.074 67.781 20.388 76.449 50.074 77.703 50.074 83.164 50.074 83.916 50.074 92.584 20.116 92.584 50.074 99.899 50.074 99.899 12.494 94.789 12.494 92.584 12.494"/>
    <path class="cls-5" d="M121.686,22.767c-1.688-.769-3.883-1.152-6.59-1.152-2.472,0-4.617.418-6.438,1.252-1.822.836-3.25,2.004-4.285,3.508-1.035,1.503-1.652,3.324-1.854,5.461h7.064c.168-.934.451-1.744.853-2.43.401-.684.978-1.211,1.729-1.578s1.679-.551,2.781-.551c1.47,0,2.613.242,3.433.727.817.484,1.227,1.211,1.227,2.18,0,.635-.242,1.152-.727,1.553s-1.219.734-2.204,1.002-2.247.568-3.783.902c-2.505.5-4.577,1.119-6.213,1.854-1.638.735-2.849,1.662-3.633,2.781-.786,1.119-1.178,2.547-1.178,4.283,0,1.805.409,3.3,1.228,4.485.818,1.187,1.954,2.088,3.407,2.706,1.453.617,3.132.926,5.036.926,1.836,0,3.474-.35,4.91-1.052,1.371-.67,2.468-1.599,3.307-2.771v3.222h6.814v-19.241c0-1.87-.393-3.49-1.178-4.859-.785-1.37-2.021-2.438-3.707-3.207ZM119.006,42.859c-.301.535-.744.986-1.328,1.354-.585.367-1.253.635-2.005.802-.751.167-1.578.251-2.479.251s-1.671-.126-2.306-.377c-.635-.25-1.119-.608-1.452-1.076-.335-.468-.501-1.02-.501-1.654,0-.768.158-1.386.476-1.854s.843-.852,1.579-1.152c.734-.301,1.753-.635,3.056-1.002,1.47-.367,2.622-.727,3.458-1.078.834-.351,1.485-.742,1.953-1.178v5.162c0,.668-.15,1.27-.45,1.803Z"/>
    <polygon class="cls-5" points="146.943 22.215 140.328 42.425 133.714 22.215 126.4 22.215 135.769 50.074 138.776 50.074 141.431 50.074 144.388 50.074 153.808 22.215 146.943 22.215"/>
    <path class="cls-5" d="M172.435,23.242c-1.954-1.085-4.268-1.628-6.94-1.628-2.472,0-4.727.568-6.764,1.703-2.038,1.136-3.666,2.748-4.885,4.836-1.221,2.088-1.83,4.584-1.83,7.49v1.252c0,2.641.56,4.995,1.68,7.066,1.118,2.07,2.713,3.699,4.785,4.885,2.07,1.186,4.525,1.779,7.365,1.779,2.305,0,4.334-.385,6.088-1.152,1.754-.769,3.198-1.922,4.334-3.458,1.135-1.536,1.871-3.474,2.205-5.812h-6.865c-.268,1.604-.894,2.814-1.879,3.633-.985.819-2.279,1.228-3.883,1.228-1.438,0-2.648-.334-3.633-1.002-.986-.668-1.746-1.595-2.279-2.781-.465-1.03-.715-2.213-.776-3.532h19.365v-2.556c0-2.839-.526-5.27-1.578-7.291-1.052-2.02-2.556-3.573-4.51-4.659ZM162.263,27.952c.952-.551,2.029-.826,3.231-.826,2.071,0,3.592.576,4.561,1.729.719.855,1.169,2.083,1.355,3.683h-12.028c.141-.738.337-1.396.601-1.954.568-1.203,1.328-2.08,2.28-2.631Z"/>
    <path class="cls-5" d="M195.489,21.614c-1.437,0-2.689.225-3.758.676-1.069.451-1.971,1.061-2.705,1.829-.658.687-1.187,1.437-1.604,2.243v-4.148h-6.765v27.859h7.114v-15.833c0-1.035.134-1.971.401-2.807.267-.834.651-1.536,1.153-2.104.5-.567,1.084-1.002,1.753-1.303.668-.301,1.437-.451,2.306-.451.968,0,1.803.21,2.505.626.701.418,1.228.995,1.578,1.729.351.735.526,1.587.526,2.556v17.587h7.115v-18.489c0-3.174-.836-5.629-2.506-7.365s-4.042-2.605-7.115-2.605Z"/>
    <path class="cls-5" d="M216.328,12.505h-3.249l-5.143,14.951h3.289l1.136-3.329h5.307l1.132,3.329h3.668l-5.143-14.951h-.997ZM213.341,21.256l1.679-4.919,1.672,4.919h-3.351Z"/>
    <path class="cls-5" d="M231.774,19.242h-2.95v3.01h2.943c-.009.353-.069.677-.192.967-.133.312-.322.571-.568.778-.246.205-.538.365-.877.478-.339.113-.721.17-1.147.17-.731,0-1.356-.157-1.873-.469-.519-.311-.911-.788-1.177-1.425-.265-.639-.398-1.442-.398-2.412v-.598c0-.984.126-1.801.379-2.453.252-.65.625-1.136,1.116-1.455.492-.319,1.077-.478,1.755-.478.411,0,.78.053,1.106.159.326.106.608.265.848.478.239.213.432.473.578.778s.233.657.259,1.057h3.628c-.04-.997-.239-1.841-.598-2.532-.358-.691-.834-1.259-1.425-1.704-.591-.445-1.263-.768-2.013-.967-.751-.199-1.545-.299-2.382-.299-.944,0-1.838.157-2.681.468-.844.313-1.585.778-2.223,1.396-.638.618-1.136,1.395-1.495,2.333-.358.936-.538,2.036-.538,3.299v.319c0,1.223.163,2.302.488,3.24.326.937.78,1.725,1.365,2.362.585.639,1.286,1.12,2.103,1.446.818.326,1.704.488,2.661.488s1.795-.153,2.512-.458c.688-.293,1.244-.759,1.675-1.388l.517,1.627h2.073v-8.213h-3.469Z"/>
    <rect class="cls-5" x="236.965" y="12.505" width="3.647" height="14.951"/>
  </g>
  <g>
    <rect class="cls-4" x="12.267" y="12.397" width="7.515" height="7.515"/>
    <rect class="cls-3" x="19.782" y="12.397" width="7.515" height="7.515"/>
    <rect class="cls-4" x="27.298" y="12.397" width="7.515" height="7.515"/>
    <rect class="cls-4" x="42.328" y="12.397" width="7.515" height="7.515"/>
    <rect class="cls-1" x="34.813" y="12.397" width="7.515" height="7.515"/>
    <rect class="cls-5" x="19.782" y="19.912" width="7.515" height="7.515"/>
    <rect class="cls-4" x="27.298" y="19.912" width="7.515" height="7.515"/>
    <rect class="cls-5" x="34.813" y="19.912" width="7.515" height="7.515"/>
    <rect class="cls-3" x="12.267" y="19.912" width="7.515" height="7.515"/>
    <rect class="cls-4" x="42.328" y="19.912" width="7.515" height="7.515"/>
    <rect class="cls-1" x="12.267" y="27.428" width="7.515" height="7.515"/>
    <rect class="cls-5" x="19.782" y="27.428" width="7.515" height="7.515"/>
    <rect class="cls-3" x="27.298" y="27.428" width="7.515" height="7.515"/>
    <rect class="cls-5" x="42.328" y="27.428" width="7.515" height="7.515"/>
    <rect class="cls-1" x="34.813" y="27.428" width="7.515" height="7.515"/>
    <rect class="cls-1" x="12.267" y="42.458" width="7.515" height="7.515"/>
    <rect class="cls-4" x="19.782" y="42.458" width="7.515" height="7.515"/>
    <rect class="cls-2" x="27.298" y="42.458" width="7.515" height="7.515"/>
    <rect class="cls-3" x="42.328" y="42.458" width="7.515" height="7.515"/>
    <rect class="cls-4" x="34.813" y="42.458" width="7.515" height="7.515"/>
    <rect class="cls-4" x="19.782" y="34.943" width="7.515" height="7.515"/>
    <rect class="cls-5" x="27.298" y="34.943" width="7.515" height="7.515"/>
    <rect class="cls-3" x="34.813" y="34.943" width="7.515" height="7.515"/>
    <rect class="cls-5" x="12.267" y="34.943" width="7.515" height="7.515"/>
    <rect class="cls-1" x="42.328" y="34.943" width="7.515" height="7.515"/>
  </g>
</svg>